<svg xmlns="http://www.w3.org/2000/svg" viewBox="0 0 200 200" aria-hidden="true">
  <path fill="currentColor" d="M188.02,91.38c-0.64-12.05-3.38-23.51-8.95-34.11l-17.33-33.09c-4.97-9.48-11.33-17.59-21.55-21.26
    c-23.34-8.39-29.93,13.07-52.55,1.9c-16.19-8-34.36-3.21-44.52,11.9c-4.95,7.38-8.23,15.62-12.42,23.72
    c-4.54,8.78-10.09,16.78-13.35,26.23c-5.48,15.89-5.83,32.37-3.57,49.05c3.08,22.71,13.24,43.25,28.87,59.45
    c32.71,33.9,86.72,32.67,117.87-2.43C180.66,150.04,189.65,122.03,188.02,91.38z M97.1,34.14c0.24-1.15,0.49-2.29,0.76-3.41
    c0.04-0.15,0.15-0.35,0.29-0.57c0.01-0.02,0.02-0.03,0.03-0.05c0.02-0.03,0.05-0.07,0.08-0.11c0.32-0.45,0.77-0.96,1.15-1.35
    c0.21-0.21,0.39-0.39,0.52-0.51c0.52-0.46,2.39,1.33,2.63,2.22c0.44,1.64,0.81,3.29,1.14,4.95s0.6,3.32,0.82,4.98
    c0.14,1.03,0.26,2.07,0.36,3.09c0.31,3.08,0.45,6.11,0.46,9.02c0,0,0,0,0,0.01c0,0.75,0,1.49-0.02,2.22
    c-0.02,0.91-0.05,1.8-0.09,2.68c-0.02,0.43-0.04,0.85-0.07,1.27c-0.02,0.41-0.05,0.81-0.08,1.21c-0.04,0.47-0.07,0.94-0.11,1.4
    c-1.17,12.93-4.87,20.54-7.09,12.87C94.23,61.46,94.41,47.1,97.1,34.14z M174.56,106.03c-0.53,8.36-2.12,16.54-4.68,24.34
    c-0.16,0.48-0.3,0.96-0.46,1.44c-0.06,0.16-0.12,0.31-0.18,0.47c-2.83,8.05-6.72,15.67-11.64,22.59
    c-3.35,4.71-7.16,9.11-11.44,13.11c-26.28,24.6-65.35,24.65-91.51,0.1c-19.24-18.06-29.24-44.29-29.09-70.47
    c0.03-6.04,0.61-12.09,1.73-18.02c1.75-9.25,6.53-17.01,10.85-25.06l9.64-17.97c1.48-2.76,5.04-4.78,7.83-4.13
    c3.11,0.73,5.12,3.5,6.41,6.57c5.45,12.98,11.75,25.05,16.09,38.5c0.01,0.03,0.02,0.06,0.03,0.09c0.01,0.04,0.02,0.08,0.04,0.12
    c4.54,14.14,7.22,28.08,10.77,42.46c0.08,0.31,0.15,0.61,0.22,0.92c0.51,2.03,1.2,4.22,2.17,6.26c1.62,3.4,3.99,6.34,7.52,7.28
    c5.4,1.43,10.11-4.26,11.33-9.23l9.78-39.84c4.39-17.89,12.58-33.88,20.63-50.42c1.02-2.09,4.88-3.23,6.78-2.81
    c1.74,0.38,4.61,2.41,5.62,4.3l13.25,24.6c6.27,11.65,8.43,21.27,8.65,32.74c0.02,0.92,0.02,1.84,0.02,2.79
    C174.9,99.69,174.77,102.76,174.56,106.03z"/>
  <path fill="currentColor" d="M161.34,88.76c-0.07-1.22,1.84-3.01,2.87-2.99c5.92,0.12,4.22,14.1,3.76,19.43
    c-1.76,20.57-9.36,39.7-23.21,54.6c-23.68,25.47-62.21,26.72-86.93,2.06c-19.13-19.09-27.48-45.69-25.15-72.91
    c0.1-1.2,2.04-3.16,3.14-3.24c1.39-0.11,3.47,1.99,3.43,3.6c-0.29,11.94,0.09,23.13,3.6,34.31
    c4.49,14.34,12.07,27.13,23.41,36.71c21.02,17.76,50.75,16.33,70.58-2.33C156.02,139.96,162.76,115.22,161.34,88.76"/>
  <path fill="currentColor" d="M70.88,96.05c-5.66-7.96-10.75-14.63-16.99-21.43c-9.97-10.88-6.95-23.19,0.62-35.28
    c5.09,8.93,23.54,52.01,19.79,57.62C73.84,97.65,71.38,96.75,70.88,96.05 M129.42,96.38c-0.44,0.62-2.53,1.18-2.84,0.67
    c-3.32-5.6,10.24-37.72,13.71-45.18l5.92-12.74c7.38,11.83,10.24,24.16,0.89,34.91C141.27,80.75,134.16,89.61,129.42,96.38"/>
</svg>