<svg xmlns="http://www.w3.org/2000/svg" viewBox="0 0 200 200" aria-hidden="true">
  <path fill="currentColor" d="M97.19 154.16 84.21 150c-6.78-2.17-13.77-2.09-20.5.05l-11.28 3.58c-7.96 2.52-16.45.38-22.4-5.18-11.43-10.69-8.16-28.44 3.72-38.89 7.6-6.69 13.19-14.33 18.34-22.89 4.9-8.15 12.9-12.71 21.86-12.8 9.29-.09 17.23 4.82 22.25 13.2 4.46 7.44 9.19 14.29 15.82 20.07 2.84 2.47 5.22 5.14 7.23 8.46l-11.94-8.24c-10.05 13.16-16.21 30.5-10.12 46.8"/>
  <path fill="currentColor" d="M131.61 168.66c-8.45 3.94-28.23 22.17-31.39 14.47-.61-1.5.44-3.92 2.11-4.84 5.5-3.04 10.37-5.88 15.71-9.36 1.49-11.64.78-23.09-4.53-34.05 1.05 10.18 2.52 19.92.67 30.75-19.2-11.73-16.74-34.3-5.37-51.03 17.27 12.3 25.21 27.89 15.49 49.6 10.21-7.17 19.09-15.89 25.37-26.66.32-8.25-3.58-16.71-7.8-23.26 1.59 7.41 4.07 13.47 4.03 20.52-17.12-7.17-19.17-25.48-12.55-40.36 14.67 6.89 22.35 16.93 21.53 33.27 2.2-5.26 4.5-11.33 5.16-17.12-10.24-16.88-7.01-30 7.46-43.08 10.36 15.2 13.46 30.2-2.04 43.47l-3.56 14.61c11.05-11.27 22.54-12.88 37.28-9.43-5.52 18.76-19.04 30.13-38.23 23.92 6.69-6.69 14.28-9.98 21.34-14.74-9.53 2.76-20.2 6.75-26.3 14.75l-14.11 18.51c18.35-7.82 32.43.2 44.9 12.96-16.56 13.98-38.02 18.54-52.24-.18 11.38-3.06 21.92-1.98 32.86-1.47-10.78-3.53-24.75-6.39-35.79-1.25"/>
  <path fill="currentColor" d="M59.72 14.98c15.84 16.84 10.37 46.59-3.39 49.51-4.81 1.02-9.83-.39-13.4-4.03-16.09-16.42-11.53-47.19 3.85-50.01 4.59-.84 9.46.83 12.94 4.53"/>
  <path fill="currentColor" d="M91.21 64.42c-4.86-1.38-8.25-5.48-9.98-9.86-8.11-20.51 4.06-46.08 19.14-44.23 15.47 1.9 20.55 31.07 6.32 48.32-3.73 4.53-9.44 7.48-15.48 5.77"/>
  <path fill="currentColor" d="M36.03 88.83c-1.38 4.76-4.89 8.02-8.3 9.21-4.22 1.47-8.71.55-12.51-2.22C-1.8 83.42-.64 56.21 11.1 51.79c4.66-1.76 9.2-1.05 13.11 1.81 10.54 7.73 15.59 22.2 11.82 35.23"/>
  <path fill="currentColor" d="M130.83 86.83l-4.81 11.19c-5.9 2.25-12.22-2.41-14.18-8.85-3.91-12.85 1.09-27.6 11.99-35.55 3.62-2.64 7.92-3.51 12.41-2.03 3.06 1.01 6.52 4.45 7.89 8.6 3.44 10.43.7 21.85-6.09 30.48z"/>
</svg>