<svg xmlns="http://www.w3.org/2000/svg" viewBox="0 0 200 200" aria-hidden="true">
  <path fill="currentColor" d="m129.25 98.27-15.75 14.5c-20.52 18.9-17.54 32.7-32.32 48.49-7.3 7.8-16.34 12.34-25.45 17.56-7.77 4.45-12.54 12.14-19 18.38-8.94.39-18.2.31-27.34.18-10.57-.15-8.25-21.89-7.93-30.18.3-7.89 14.6-16.25 18.82-28.77l18.98-56.26c1.96-5.82 6.08-10.56 11.27-13.77l32.29-19.97c-1.02 9.82-.96 17.8.88 27.49l-7.42 7.05c-4.41 4.19-5.72 9.41-4.05 14.95 4.1-11.83 3.4-7.78 12.91-16.49l5.38 14.01c-6.08 5.79-13.53 8.78-21.86 10.64-2.1.47-4.09 2.68-3.21 4.78 5.15-.54 11.27-1.01 16.1-3.26 19.72-9.15 40.43-37.29 51.63-28.95 6.2 4.6 1.47 14.64-3.93 19.62"/>
  <path fill="currentColor" d="m179.14 197.45-73.08.03c-3.32 0-5.15-2.43-4.9-5.67 1.6-20.23 3.2-39.68 3.56-60 5.27-8.25 12.48-14.63 19.66-21.18 8.28-7.54 19.16-9.58 29.26-4.53 6.26 3.13 13.82 1.22 17.07-4.52 3.25-5.73 1.93-13-3.47-17.46-4.97-4.11-9.48-8.64-12.51-14.3-2.88-5.38-7.91-7.61-13.63-7.67-6.05-.07-9.57 4.29-13.22 8.94-4.27 1.57-9.99 3.01-13.68 5.93L94.99 92.29c-4.01-9.8-6.82-19.95-7.51-30.57-.47-7.28 2.08-13.2 4.32-19.72 1.48-4.32-.35-10.52 5.29-13.48 3.67 1.24 1.85 7.28 5.05 8.97 1.27.67 5.11.4 5.46-.91.6-20.93 12.86-21.81 13.97-25.42 1.41-4.61 2.8-9.97 8.53-10.64l1.73 11.15c3.9 1.89 7.31 4.73 9.97 8.14 2.96-3.16 6.79-6.13 10.48-8.57L153.96.79c6.73.24 6.7 6.87 8.76 10.76 8.76 5.23 14.38 14.28 13.76 25.13.8 1.36 5.31 1.42 6.36.23l2.86-8.48c6.89 2.14 4.86 8.66 6.42 13.48 1.66 5.13 4.27 10.2 4.37 16.03.48 29.38-18.41 52.6-16.57 79.99l3.62 53.93c.16 2.4-1.08 5.59-4.4 5.59M164.51 26.44c-1.13-2.09-4.17-4.18-6.21-4.38-1.69-.17-5.09 1.24-6.36 2.77-5.59 6.74-6.92 16.44-2.18 23.89 1.17 1.84 4.39 3.49 6.14 3.56 7.62.3 14.9-14.23 8.61-25.84m-32.26-1.28c-1.5-1.84-4.85-3.19-7.01-2.95-7.93.86-11.9 17.74-2.63 27.58 1.47 1.56 5.15 2.71 6.89 2.38 7.4-1.38 11.24-16.57 2.75-27.01m-18.98 30.07c-2.09-4.48-9.32-9.04-13.64-4.53-5.67 5.93-3.1 16.83 2.97 21.53 2.36 1.82 5.47 2.5 8.06 1.84 6.45-1.63 6.44-10.64 2.61-18.84m67.62 17.44c6.39-4.82 8.76-14.71 4.1-21.04-3.6-4.9-10.75-2.27-13.36 2.06-2.98 4.94-5.5 9.77-3.27 15.51.76 1.95 3.08 4.44 4.76 5.05 1.97.72 5.53.1 7.77-1.58"/>
</svg>