<svg xmlns="http://www.w3.org/2000/svg" viewBox="0 0 200 200" aria-hidden="true">
  <path
    fill="currentColor"
    fill-rule="evenodd"
    clip-rule="evenodd"
    d="M194.64 165.35c-4.55 3.59-17.95 6.59-19.65-1.94l-12.02-60.16c-.73-3.65-1.34-6.76 0-10.42l-9.25-43.64 13.24-3.36 10.14 44.03c.88 1.12 2.92 3.41 3.3 4.97l15.1 61.2c.78 3.15 2.02 7.05-.86 9.32
    M145.12 44.6c-10.5-4.92-5.17 9.24-19.93 7.2l-5.41-22.36c9.3-7.21 10.75-.26 15.52-.05 6.07.27 4.88-5.53 10.34-6.75l17.71-3.94c3.41-.76 7.93-2.51 11.38-1.1 10.22 4.18 18.92 11.05 25.53 20.02-5.12 8.08-7.25-6.82-31.5 3.51-4.79 2.04-10.52 2.5-15.68 4.06-2.67.8-5.77.43-7.96-.59
    M160.69 15.04l-13.86 3.62c-.5-1.11-1-2.76-.99-3.69s1.81-2.77 2.74-3.01c3.96-1.06 11.2-3.81 12.11 3.08
    M70.37 80.94c-6.74-4.12-13.82-2.88-17.97 3.44-5.81 8.85-9.8 17.88-13.17 28.6-10.98-7.12-8.14-19.6-3.84-29.34 5.99-13.54-3.07-23.15-7.96-23.08-4.87.07-4.07 12.48-4.14 16.98-6.78-4.02-9.35-11.2-11.69-18.36l-1.89 9.83C.95 61.4-.86 50.56.65 39.97 2.18 29.27 2.59 19.04.62 7.59l66.43-.07c7.89 24.71 15.61 33.39 36.83 47.36 4.64 3.36 7.28 7.24 8.35 13l8.64 11.84c-9.41 4.12-12.21 13.65-7.49 22.24 3.72 6.77 6.39 13.81 6.92 21.88-17.38 3.28-34.04 3.49-51.77.66 1.25-8.38 4.27-16.21 7.91-23.81 3.61-7.55 1.13-15.33-6.07-19.75
    M140.95 103.29c-2.84-7.18-5.81-15.03-11.53-20.63-3.4-3.32-9.29.45-11.32 2.73-2.54 2.86-3.2 6.98-1.19 10.72 10.75 19.96 13.55 47.4-3.55 63.7-12.61 12.03-32.25 9.78-42.68-4.35-8.25-11.17-10.05-25.45-7.29-39.21 1.45-7.21 4.29-13.9 7.43-20.4 2.43-5.04.76-10.03-3.88-12.99-3.61-2.29-8.23-2.13-10.92 1.94-10 15.17-15.66 33.14-14.1 51.48 1.2 14.1 6.33 27.24 16.35 37.22 16.84 16.79 42.88 19.22 63.11 6.74 25.19-15.52 30.08-50.33 19.57-76.95
    M51.89 121.15c.63-.23 1.82-.2 2.48-.03 1.27.33 1.63 4.27.27 7.17-.33.7-2.86.87-3.21.17-1.5-3.02-.16-7.08.46-7.31
    M53.66 143.32c1.42-.19 1.58 3.43 1.29 4.84-.29 1.4-2.55 3.49-3.91 2.38-2.57-2.11-.69-7.67 2.62-7.22
    M64.13 163.33c2.5.27 3.96 2.7 4.96 4.89.35.79-1.63 2.64-2.45 2.39-1.94-.58-3.85-3.43-4.74-5.16-.37-.73 1.42-2.2 2.23-2.12
    M124.76 163.44l-2.4 1.91c-.64.51-1.5 2.13-1.68 2.94-.17.81 1.39 2.58 2.18 2.32 2.23-.76 5.14-4.17 4.74-5.82-.19-.82-2.19-1.88-2.84-1.35
    M136.53 143.56c-.76-.3-2.75-.55-3.08.2l-1.31 2.98c-.37.85.08 3.16.66 3.88.47.57 2.53.64 2.89 0 1.28-2.23 2.6-6.37.84-7.06
    M137.05 120.58c-.61-.3-2.49.68-2.8 1.28-.8 1.52-.18 6.03 1.4 6.67.85.34 3.03-.55 3.01-1.34l-.12-3.69c-.03-.95-.88-2.62-1.49-2.92"
  />
</svg>