<svg xmlns="http://www.w3.org/2000/svg" viewBox="0 0 200 200" aria-hidden="true">
  <path fill="currentColor" d="M153.72 14.93c-7.95-8.96-20.84-12.86-32.51-10.74-9.7 1.77-15.88 11.37-28.45 5.14-3.69-1.83-7.51-4.15-11.74-5-10.49-2.12-21.71.7-29.99 7.5-6.75 5.54-9.91 13.95-10.41 22.63-.57 10.05 1.99 19.79 5.61 29.14l4.25 10.97c3.12 8.07 2.58 16.74 1.6 25.36-1.92 16.88-2.8 27.63-.27 44.52 2.07 13.87 7.48 39.31 19.07 48.09 1.73 1.31 3.87 1.4 6.02.76 1.47-.44 2.64-2.4 3.2-4.37 1.92-6.73 1.63-13.32 1.06-20.27-1.38-16.62-1.16-30.79 5.65-46.09 2.15-4.84 5.1-8.96 9.22-12.2 3.64-2.85 8.25-1.97 11.49 1.43 11.4 11.96 14.5 32.51 13.49 48.47l-.76 11.98c-.32 5.03-.58 19.91 5.56 21.28 2.3.51 4.74-.15 6.41-1.77 9.1-8.82 13.8-26.4 16.24-38.66 4.07-20.45 3.72-35.6.84-56.18-1.43-10.2.18-19.82 4.41-29.11 6.92-15.18 12.1-39.26.01-52.88m-26.64 67.4c-15.81 6.88-33.08 7.12-49.25 1.18-5.06-1.86-10.05-3.88-13.86-8.2 10.66 2.62 20.77 4.74 31.45 5.62 12.2 1.01 29.8-2.29 42.46-5.76-2.78 3.45-6.74 5.39-10.8 7.16m5.42 93.92c.28-3.96 1.19-6.8 1.92-10.18 5.84-26.96 4.78-36.09 1.65-63.01-.33-2.79.24-8.76 3.22-8.79.69-.01 1.79 1.21 1.94 2.01 1.41 7.64 2.57 14.77 2.92 22.57.9 20.16-2.81 39.82-11.65 57.4m17.22-126.43c-.84-2.35-.94-4.47-1.15-6.88-.44-4.94-1.87-9.6-4.34-13.84-4.96-8.54-16.12-10.49-23.6-7.09l-10.06 4.56c-14.9 6.76-24.26-4.29-33.5-5.73-6.09-.95-12.58.44-16.83 4.79-5.89 6.02-7.2 15.02-7.86 23.51-2.49-4.44-2.65-12.58-1.81-17.89C52 22.14 58.85 15.61 67.7 13.71c5.68-1.22 11.04-1.12 16.4 1.31l8.71 3.95c11.95 5.43 18.7-2.39 27.44-4.99 8.44-2.51 18.11-.71 24.73 5.2 8.2 7.32 7.8 20.78 4.74 30.64"/>
  <path fill="#fff" d="M144.23 29.1c-4.96-8.54-16.12-10.49-23.6-7.09l-10.06 4.56c-14.9 6.76-24.26-4.29-33.5-5.73-6.09-.95-12.58.44-16.83 4.79-5.89 6.02-7.2 15.02-7.86 23.51-2.49-4.44-2.65-12.58-1.81-17.89C52 22.14 58.85 15.61 67.7 13.71c5.68-1.22 11.04-1.12 16.4 1.31l8.71 3.95c11.95 5.43 18.7-2.39 27.44-4.99 8.44-2.51 18.11-.71 24.73 5.2 8.2 7.32 7.8 20.78 4.74 30.65-.84-2.35-.94-4.47-1.15-6.88-.44-4.95-1.88-9.61-4.34-13.85M132.5 176.25c.28-3.96 1.19-6.8 1.92-10.18 5.84-26.96 4.78-36.09 1.65-63.01-.33-2.79.24-8.76 3.22-8.79.69-.01 1.79 1.21 1.94 2.01 1.41 7.64 2.57 14.77 2.92 22.57.9 20.16-2.81 39.82-11.65 57.4M137.88 75.17c-2.78 3.45-6.74 5.4-10.8 7.16-15.81 6.88-33.08 7.12-49.25 1.18-5.06-1.86-10.05-3.88-13.86-8.2 10.66 2.62 20.77 4.74 31.45 5.62 12.2 1 29.81-2.3 42.46-5.76"/>
</svg>