<svg xmlns="http://www.w3.org/2000/svg" viewBox="0 0 200 200" aria-hidden="true">
  <path fill="currentColor" d="M196.81 54.4c-3.95-5.3-8.46-10.13-11.69-15.86-1.78-3.15-2.76-6.27-5.86-8.59-4.52-3.4.75-7.32-1.29-13.57l-6.55 6.44-.78-7.91c-4.39 2.93-5.98 6.13-8.3 9.85-19 4.11-29.38 15.17-41.11 29.29-6.15 7.4-17.09 13.86-27.33 13.73-8.92-.11-17.46-1.72-26.15-3.81-12.64-3.04-25.27-.42-34.97 8.02-13.36-1.21-24.64 6.58-28.14 19.29-1.56 5.65-2.12 11.57-1.86 17.53l.9 20.05c.39 8.62-.75 16.73-2.97 25.25 6.89-1.67 11.97-6.31 15.13-12.37 13.25-25.47-3.16-53.68 10.91-59.91-2.85 8.29-2.29 16.45.45 24.69 3.86 11.6 5.81 15.8-2.22 27.01-1.37 1.91-2.22 3.93-2.11 6.33.46 9.69-.05 18.81-1.16 28.44-.71 6.17 4.64 4.67 3.39 11.28-.21 1.13.02 4.14 1.19 4.46 4.04 1.1 8.08 1.03 12.19.52-.07-7.62-5.64-9.41-5.99-15.61-.41-7.29-.52-14.48 1.39-21.45 1.38-5.05 5.11-8.9 8.11-13.06l14.23-19.71c2.4-3.33 5.52-3.89 9.14-2.5 7.88 3.02 15.54 6.27 24.08 7.56 12.09 1.82 23.9 1.04 36.23-.47 2.76 8.38 2.94 16.98 4.06 25.68 1.01 7.85 2.07 15.27 1.17 23.26-.85 7.58 6.2 4.81 4.69 11.27-.4 1.71.02 4.82 2.13 5.03 3.77.38 7.82.24 11.7-.01-.01-5.4-4.16-8.21-6.34-12.34-4.1-7.79-3.11-16.76-2.16-25.18l2.31-20.48 1.65-10.76c11.02-10.01 7.53-22.9 8.65-28.21.93-4.38 7.04-29.12 11.39-29.84 7.69 4.14 13.04 1.96 19.38 7.89 1.03.96 2.22 3.22 3.49 3.57 3.23.89 7.21-.17 9.31-2.52 3.22-3.62 2.39-8.68-.29-12.28M33.01 91.24c-1.05-3.17.02-5.66 2.27-8.01l3.66 3.21c-1.5 2.27-3.39 4.02-5.93 4.8m11.61-7.57-2.77 1.36c-.67.33-1.87-.98-2.67-1.77-1.84-1.83-.27-1.86-.64-6.96-.04-.5 1.08-1.55 1.51-1.3l2.3 1.37c.46.27 1.63.14 2.13.33 1.12.42 2.3 3.64 2.33 5.15.02.65-1.35 1.41-2.19 1.82m5.3-2.42c-3.89-8.86-.25-3.82.21-9.89.04-.56.66-1.53 1.1-1.71 3.39-1.36 1.19 3.66 5.3 4.02l.64 6.87zm17.75.62-7.8-1.24c-.17-2.08-.42-5.62.87-6.69 4.06-2.04 1.34-5.02 4.43-4.77 4.1.34-.38 3.84 3.98 5.36zm11.44 3.05c-2.98-.56-5.43-1.2-8.15-2.35.82-11.87 2.99-4.3 5.05-10.67.32-.98 3.38-.4 3.29.58-.2 2.13.23 2.88 1.47 4.67.7 1.72-.66 4.93-1.66 7.77m13.3 1.51c-3.15.62-6.48.3-9.16-1-.24-2.35.1-6.26 1.29-7.74 4.09-1.44 1.39-4.77 3.91-4.82 4.78-.09.01 4.22 4.57 5.53 0 2.13-.24 5.17-.61 8.03m4 .01-.86-7.94c2.29-1.23 2.29-2.5 2.24-4.74-.02-1.16 3.24-1.4 3.41-.38.35 2.09.54 3.28 2.98 3.61.62 1.97 1.35 4.99 1.66 7.74-2.69 2.05-6.31 2.32-9.43 1.71m13.55-2.78c-5.58-8.56-1.47-8.7-1.63-9.16l-.69-2.05c-.24-.72.29-2.18.91-2.45 3.18-1.36 1.73 4.07 5.67 2.81l3.93 6.82c-2 2.32-5 3.79-8.19 4.03m11.58-5.93c-7.32-6.14-3.84-7.86-4-8.11l-1.03-1.64c-.39-.62-.26-2.19.29-2.64.81-.66 2.36-.1 3.14.7 2.21 2.24 2.18-1.84 8.18 6.32-1.98 2.55-3.75 4.32-6.58 5.37m9.39-8.28c-8.41-4.06-4.53-6.03-5.82-7.25-.72-.68-1.62-1.87-1.49-2.58.12-.71 1.68-1.81 2.33-1.33 4.67 3.42 2.62-2.61 9.49 4.74-1.03 2.24-2.49 4.38-4.51 6.42m10.08-14.54-3.43 4.94c-8.42-3.04-3.26-3.85-6.27-7.47-.39-.47.06-2.42.64-2.29l2.95.66 2.14-.65c.75-.23 5.18 3.06 3.97 4.81m2.59-3.83c-3.42-1.22-4.25-3.34-4.2-5.88.01-.54-.53-1.82-.44-2.34.42-2.31 3.53.79 5.8-.71.94.16 2.59 2.11 3.53 3.62zm13.15-12.43-5.8 4.8c-3.49-.35-4.14-5.17-3.17-7.21 5.34 1.23 7.13-2.18 9.37-.55.54.39.14 2.52-.4 2.96"/>
  <path fill="currentColor" d="M55.22 148.23c-.58-4.39 1.5-9.06 3.36-12.87l9.09-18.63c-2.6-1.28-4.96-2.03-7.43-1.69l-10.67 14.72-7.43 10.19c3.27 9.18 5.69 18.08 7.1 27.75.94 6.43 5.97 3.56 5.48 9.69-.1 1.31.45 4.73 1.72 4.93 4.2.65 7.42.44 11.97-.02-1.1-7.62-6.24-9.69-7.98-14.6-2.27-6.41-4.3-12.64-5.21-19.47M122.28 163.72c.42-6.62 1.01-12.87 3.89-18.91a126 126 0 0 0-2.81-21.87l-7.39.9-.63 18.61c-.26 7.56-.73 14.6-2.66 22.04-2.02 7.76 4.37 5.71 2.56 12.28-.48 1.74-.48 5.34 2.28 5.67 3.79.45 7.05.3 10.86.03-1.33-10.07-6.73-8.61-6.1-18.75"/>
</svg>